<svg xmlns="http://www.w3.org/2000/svg" xmlns:xlink="http://www.w3.org/1999/xlink" viewBox="0 0 203.18 187.97"><defs><style>.cls-1{isolation:isolate;}.cls-2{fill:url(#radial-gradient);}.cls-3{mix-blend-mode:multiply;}.cls-4{fill:url(#radial-gradient-2);}.cls-5{fill:url(#radial-gradient-3);}.cls-6{fill:url(#radial-gradient-4);}.cls-7{fill:url(#radial-gradient-5);}.cls-8{fill:url(#radial-gradient-6);}.cls-9{fill:url(#radial-gradient-7);}.cls-10{fill:url(#radial-gradient-8);}.cls-11{fill:#114c73;}</style><radialGradient id="radial-gradient" cx="683.47" cy="427.75" r="155.96" gradientUnits="userSpaceOnUse"><stop offset="0.08" stop-color="#f497b0" stop-opacity="0.2"/><stop offset="0.86" stop-color="#ee5792"/></radialGradient><radialGradient id="radial-gradient-2" cx="1113.94" cy="582.26" r="127.12" gradientTransform="translate(-431.25 -177)" xlink:href="#radial-gradient"/><radialGradient id="radial-gradient-3" cx="1113.63" cy="583.34" r="127.12" gradientTransform="translate(-431.25 -177)" xlink:href="#radial-gradient"/><radialGradient id="radial-gradient-4" cx="1112.25" cy="583.34" r="127.12" gradientTransform="matrix(-1, 0, 0, 1, 1796.7, -177)" xlink:href="#radial-gradient"/><radialGradient id="radial-gradient-5" cx="1111.25" cy="580.53" r="127.12" gradientTransform="translate(-431.25 -177)" xlink:href="#radial-gradient"/><radialGradient id="radial-gradient-6" cx="1109.87" cy="580.53" r="127.12" gradientTransform="matrix(-1, 0, 0, 1, 1796.7, -177)" xlink:href="#radial-gradient"/><radialGradient id="radial-gradient-7" cx="688.14" cy="427.99" r="77.09" gradientTransform="translate(-13.92 -4.49) rotate(-1.8) scale(1 1.06)" xlink:href="#radial-gradient"/><radialGradient id="radial-gradient-8" cx="686.75" cy="427.99" r="72.55" gradientTransform="matrix(-1, -0.03, -0.03, 1.06, 1379.38, -4.53)" xlink:href="#radial-gradient"/></defs><title>bloom-logo2</title><g class="cls-1"><g id="Layer_1" data-name="Layer 1"><path class="cls-2" d="M720,357.56c0-25.7-12.87-49.11-34-66.69a4.26,4.26,0,0,0-5.14,0c-21.08,17.58-33.94,41-33.94,66.69,0,35.67,27.16,65.05,34.81,71.42a2.85,2.85,0,0,0,3.44,0C692.88,422.58,720,393.23,720,357.56Z" transform="translate(-581.83 -290.01)"/><g class="cls-3"><path class="cls-4" d="M685.21,339.62a2.85,2.85,0,0,0-3.44,0C667.64,351.4,659,367.08,659,384.3s8.62,32.9,22.75,44.68a2.85,2.85,0,0,0,3.44,0C699.33,417.2,708,401.52,708,384.3S699.33,351.4,685.21,339.62Z" transform="translate(-581.83 -290.01)"/></g><g class="cls-3"><path class="cls-5" d="M759,331.26c-.38-1.3-2.12-2.07-3.78-1.67-25.32,6.11-47.83,19.17-62.16,38.09S675.2,408,680.92,427.77a2.77,2.77,0,0,0,2.5,1.75,4,4,0,0,0,1.28-.08c25.31-6.11,47.83-19.17,62.15-38.09S764.75,351,759,331.26Z" transform="translate(-581.83 -290.01)"/></g><g class="cls-3"><path class="cls-6" d="M607.82,331.26c.37-1.3,2.12-2.07,3.78-1.67,25.31,6.11,47.83,19.17,62.15,38.09s17.9,40.32,12.18,60.09a2.79,2.79,0,0,1-2.51,1.75,3.91,3.91,0,0,1-1.27-.08c-25.32-6.11-47.83-19.17-62.16-38.09S602.1,351,607.82,331.26Z" transform="translate(-581.83 -290.01)"/></g><g class="cls-3"><path class="cls-7" d="M783.18,382.57c1.34.23,2.14,1.28,1.72,2.27-6.31,15.22-19.81,28.75-39.36,37.36s-41.68,10.76-62.12,7.32c-1.34-.22-2.13-1.27-1.72-2.27C688,412,701.52,398.5,721.07,389.89S762.74,379.13,783.18,382.57Z" transform="translate(-581.83 -290.01)"/></g><g class="cls-3"><path class="cls-8" d="M583.66,382.57c-1.34.23-2.13,1.28-1.72,2.27,6.31,15.22,19.81,28.75,39.37,37.36S663,433,683.42,429.52c1.34-.22,2.14-1.27,1.72-2.27-6.31-15.22-19.81-28.75-39.37-37.36S604.1,379.13,583.66,382.57Z" transform="translate(-581.83 -290.01)"/></g><path class="cls-9" d="M682.22,426.09c-.17.39-.36.77-.52,1.16-.41,1,.38,2.05,1.72,2.27,20.44,3.44,42.56,1.29,62.12-7.32,2.22-1,4.35-2,6.41-3.12a93,93,0,0,0-19.48-3.48C713.86,414.27,696.24,418.33,682.22,426.09Z" transform="translate(-581.83 -290.01)"/><path class="cls-10" d="M684.63,426.09c.17.39.35.77.51,1.16.42,1-.38,2.05-1.72,2.27-20.44,3.44-42.56,1.29-62.11-7.32-2.22-1-4.36-2-6.42-3.12a93.14,93.14,0,0,1,19.49-3.48C653,414.27,670.61,418.33,684.63,426.09Z" transform="translate(-581.83 -290.01)"/><path class="cls-11" d="M617.23,455.94a13.31,13.31,0,0,1,6.47,2.94,9.16,9.16,0,0,1,3,6.91,10.26,10.26,0,0,1-2,5.94,11.22,11.22,0,0,1-5.39,4.15q-3.42,1.31-10.46,1.3H589.22v-1.13h1.57a4.19,4.19,0,0,0,3.74-1.66c.47-.72.71-2.24.71-4.58V442.92c0-2.58-.3-4.21-.89-4.89a4.52,4.52,0,0,0-3.56-1.35h-1.57v-1.13h18a35.72,35.72,0,0,1,8.08.73,12.92,12.92,0,0,1,7,3.92,9.59,9.59,0,0,1,2.43,6.46,9,9,0,0,1-1.91,5.61A11.19,11.19,0,0,1,617.23,455.94Zm-16.1-1.66a24,24,0,0,0,2.6.32c1,.07,2,.11,3.21.11a18.05,18.05,0,0,0,6.74-1,7.27,7.27,0,0,0,3.45-3,8.32,8.32,0,0,0,1.2-4.36,8,8,0,0,0-3-6.24q-3-2.58-8.69-2.58a20.88,20.88,0,0,0-5.53.68Zm0,19.9a31.14,31.14,0,0,0,7,.82c3.7,0,6.53-.83,8.47-2.5a7.83,7.83,0,0,0,2.92-6.19,9.05,9.05,0,0,0-1.32-4.66,8.8,8.8,0,0,0-4.3-3.53,18.57,18.57,0,0,0-7.37-1.29c-1.27,0-2.35,0-3.26.06a17.11,17.11,0,0,0-2.18.21Z" transform="translate(-581.83 -290.01)"/><path class="cls-11" d="M658.41,467.55l.85.18-3,9.45h-27v-.95h1.31a3.5,3.5,0,0,0,3.16-1.44c.36-.54.54-1.81.54-3.8V448.5c0-2.18-.24-3.54-.72-4.09a3.79,3.79,0,0,0-3-1.13h-1.31v-.95h15.78v.95a9.69,9.69,0,0,0-3.89.52,3.1,3.1,0,0,0-1.53,1.36,11.08,11.08,0,0,0-.41,3.93V471a7,7,0,0,0,.41,2.93,1.81,1.81,0,0,0,1,.8,16.92,16.92,0,0,0,4,.25h2.54a18.24,18.24,0,0,0,5.63-.59,7.3,7.3,0,0,0,3-2.09A17.1,17.1,0,0,0,658.41,467.55Z" transform="translate(-581.83 -290.01)"/><path class="cls-11" d="M678.06,441.53a15.78,15.78,0,0,1,11.76,5.16,17.76,17.76,0,0,1,5,12.86,18.34,18.34,0,0,1-5,13.19,16.76,16.76,0,0,1-24.22.13q-4.9-5.12-4.9-13.24a17.65,17.65,0,0,1,5.66-13.55A16.67,16.67,0,0,1,678.06,441.53Zm-.49,1.88a9.2,9.2,0,0,0-7.5,3.47q-3.52,4.32-3.52,12.65,0,8.54,3.65,13.13a9,9,0,0,0,7.4,3.5,10.13,10.13,0,0,0,8.11-3.83q3.19-3.84,3.2-12.08,0-9-3.52-13.34A9.51,9.51,0,0,0,677.57,443.41Z" transform="translate(-581.83 -290.01)"/><path class="cls-11" d="M716.6,441.53a15.78,15.78,0,0,1,11.76,5.16,17.76,17.76,0,0,1,5,12.86,18.3,18.3,0,0,1-5,13.19,16.76,16.76,0,0,1-24.22.13q-4.89-5.12-4.9-13.24a17.65,17.65,0,0,1,5.66-13.55A16.69,16.69,0,0,1,716.6,441.53Zm-.48,1.88a9.22,9.22,0,0,0-7.51,3.47q-3.52,4.32-3.52,12.65,0,8.54,3.65,13.13a9,9,0,0,0,7.4,3.5,10.13,10.13,0,0,0,8.11-3.83q3.19-3.84,3.2-12.08,0-9-3.52-13.34A9.51,9.51,0,0,0,716.12,443.41Z" transform="translate(-581.83 -290.01)"/><path class="cls-11" d="M755.33,477.18l-13.47-29.32v23.28c0,2.15.23,3.48.69,4a3.83,3.83,0,0,0,3,1.08h1.23v.95H734.66v-.95h1.24A3.54,3.54,0,0,0,739,474.9c.38-.55.57-1.8.57-3.76V448.37a7.84,7.84,0,0,0-.52-3.34,2.87,2.87,0,0,0-1.32-1.25,7.18,7.18,0,0,0-3.1-.5v-.95h9.87l12.65,27.27,12.44-27.27h9.87v.95h-1.21a3.58,3.58,0,0,0-3.16,1.34q-.57.83-.57,3.75v22.77c0,2.15.24,3.48.72,4a3.83,3.83,0,0,0,3,1.08h1.21v.95H764.68v-.95h1.24a3.49,3.49,0,0,0,3.13-1.33c.38-.55.57-1.8.57-3.76V447.86l-13.44,29.32Z" transform="translate(-581.83 -290.01)"/></g></g></svg>