<svg xmlns="http://www.w3.org/2000/svg" xmlns:xlink="http://www.w3.org/1999/xlink" viewBox="0 0 455.51 153"><defs><style>.cls-1{isolation:isolate;}.cls-2{fill:#4b525f;}.cls-3{fill:#3b84a4;}.cls-4{fill:url(#radial-gradient);}.cls-5{mix-blend-mode:multiply;}.cls-6{fill:url(#radial-gradient-2);}.cls-7{fill:url(#radial-gradient-3);}.cls-8{fill:url(#radial-gradient-4);}.cls-9{fill:url(#radial-gradient-5);}.cls-10{fill:url(#radial-gradient-6);}.cls-11{fill:url(#radial-gradient-7);}.cls-12{fill:url(#radial-gradient-8);}.cls-13{fill:none;}</style><radialGradient id="radial-gradient" cx="505.9" cy="466.03" r="124.92" gradientUnits="userSpaceOnUse"><stop offset="0.08" stop-color="#f497b0" stop-opacity="0.2"/><stop offset="0.86" stop-color="#ee5792"/></radialGradient><radialGradient id="radial-gradient-2" cx="936.53" cy="625.02" r="101.82" gradientTransform="translate(-431.25 -177)" xlink:href="#radial-gradient"/><radialGradient id="radial-gradient-3" cx="936.28" cy="625.88" r="101.82" gradientTransform="translate(-431.25 -177)" xlink:href="#radial-gradient"/><radialGradient id="radial-gradient-4" cx="1290.01" cy="625.88" r="101.82" gradientTransform="matrix(-1, 0, 0, 1, 1796.7, -177)" xlink:href="#radial-gradient"/><radialGradient id="radial-gradient-5" cx="934.38" cy="623.63" r="101.82" gradientTransform="translate(-431.25 -177)" xlink:href="#radial-gradient"/><radialGradient id="radial-gradient-6" cx="1288.1" cy="623.63" r="101.82" gradientTransform="matrix(-1, 0, 0, 1, 1796.7, -177)" xlink:href="#radial-gradient"/><radialGradient id="radial-gradient-7" cx="509.64" cy="466.22" r="61.75" gradientTransform="translate(-15.28 -12.42) rotate(-1.8) scale(1 1.06)" xlink:href="#radial-gradient"/><radialGradient id="radial-gradient-8" cx="863.37" cy="466.22" r="58.11" gradientTransform="matrix(-1, -0.03, -0.03, 1.06, 1380.57, -1.32)" xlink:href="#radial-gradient"/></defs><title>bloom-logo1</title><g class="cls-1"><g id="Layer_1" data-name="Layer 1"><path class="cls-2" d="M630.64,397.54q6.08,1.29,9.08,4.13a12.84,12.84,0,0,1,4.18,9.68,14.36,14.36,0,0,1-2.76,8.32,15.67,15.67,0,0,1-7.55,5.81q-4.8,1.83-14.65,1.83H591.4v-1.59h2.19q3.66,0,5.25-2.32c.66-1,1-3.14,1-6.41v-37.7q0-5.42-1.24-6.84a6.35,6.35,0,0,0-5-1.89H591.4V369h25.22a49.7,49.7,0,0,1,11.31,1q6.45,1.54,9.86,5.48a13.5,13.5,0,0,1,3.39,9.06,12.53,12.53,0,0,1-2.66,7.86A15.74,15.74,0,0,1,630.64,397.54Zm-22.54-2.33a35,35,0,0,0,3.63.46q2,.15,4.5.15c4.19,0,7.33-.46,9.44-1.36a10.12,10.12,0,0,0,4.84-4.15,11.66,11.66,0,0,0,1.68-6.11,11.17,11.17,0,0,0-4.17-8.74c-2.79-2.41-6.84-3.61-12.18-3.61a28.78,28.78,0,0,0-7.74.95Zm0,27.89a43.54,43.54,0,0,0,9.85,1.16q7.78,0,11.87-3.51a11,11,0,0,0,4.09-8.67,12.63,12.63,0,0,0-1.85-6.54,12.44,12.44,0,0,0-6-5,26.11,26.11,0,0,0-10.33-1.81q-2.67,0-4.56.09a24.23,24.23,0,0,0-3,.3Z" transform="translate(-424.49 -342.7)"/><path class="cls-2" d="M688.35,413.81l1.19.25-4.17,13.25H647.55V426h1.83a4.89,4.89,0,0,0,4.43-2c.51-.77.76-2.54.76-5.33V387.12q0-4.58-1-5.73a5.3,5.3,0,0,0-4.18-1.58h-1.83v-1.34h22.11v1.34a13.25,13.25,0,0,0-5.45.72,4.4,4.4,0,0,0-2.15,1.91q-.57,1.14-.57,5.51v30.68a10.1,10.1,0,0,0,.57,4.11,2.52,2.52,0,0,0,1.34,1.11c.59.25,2.47.36,5.61.36h3.57c3.75,0,6.37-.27,7.89-.82a10.33,10.33,0,0,0,4.14-2.94A23.78,23.78,0,0,0,688.35,413.81Z" transform="translate(-424.49 -342.7)"/><path class="cls-2" d="M715.89,377.36a22.17,22.17,0,0,1,16.48,7.22,24.94,24.94,0,0,1,7,18q0,11.13-7,18.48a23.46,23.46,0,0,1-33.94.18q-6.87-7.17-6.86-18.55,0-11.62,7.92-19A23.37,23.37,0,0,1,715.89,377.36Zm-.68,2.63a12.89,12.89,0,0,0-10.52,4.86q-4.94,6-4.93,17.72,0,12,5.11,18.4a12.62,12.62,0,0,0,10.37,4.9,14.2,14.2,0,0,0,11.37-5.36q4.49-5.37,4.48-16.93,0-12.54-4.93-18.69C723.51,381.62,719.87,380,715.21,380Z" transform="translate(-424.49 -342.7)"/><path class="cls-2" d="M769.9,377.36a22.17,22.17,0,0,1,16.48,7.22,24.93,24.93,0,0,1,7,18q0,11.13-7,18.48a23.46,23.46,0,0,1-33.94.18q-6.87-7.17-6.87-18.55,0-11.62,7.93-19A23.36,23.36,0,0,1,769.9,377.36Zm-.69,2.63a12.87,12.87,0,0,0-10.51,4.86q-4.94,6-4.94,17.72,0,12,5.12,18.4a12.61,12.61,0,0,0,10.37,4.9,14.19,14.19,0,0,0,11.36-5.36q4.49-5.37,4.49-16.93,0-12.54-4.94-18.69Q776.2,380,769.21,380Z" transform="translate(-424.49 -342.7)"/><path class="cls-2" d="M824.16,427.31l-18.87-41.09v32.63q0,4.5,1,5.62a5.33,5.33,0,0,0,4.21,1.51h1.73v1.33h-17V426h1.73q3.11,0,4.39-1.87.79-1.16.8-5.26V386.94a11.15,11.15,0,0,0-.72-4.68,4,4,0,0,0-1.86-1.75,9.94,9.94,0,0,0-4.34-.7v-1.34H809l17.72,38.22,17.43-38.22H858v1.34h-1.69c-2.09,0-3.56.62-4.43,1.87q-.79,1.15-.79,5.26v31.91c0,3,.33,4.87,1,5.62a5.33,5.33,0,0,0,4.21,1.51H858v1.33H837.27V426H839q3.13,0,4.39-1.87.79-1.16.79-5.26V386.22l-18.83,41.09Z" transform="translate(-424.49 -342.7)"/><path class="cls-3" d="M599.61,439.1a14.58,14.58,0,0,1,2.51-.2,4.14,4.14,0,0,1,2.83.84,2.72,2.72,0,0,1,.89,2.12,3,3,0,0,1-.78,2.16,4.22,4.22,0,0,1-3.09,1.11,4.78,4.78,0,0,1-1.05-.09v4h-1.31Zm1.31,4.87a4.07,4.07,0,0,0,1.08.11c1.57,0,2.53-.77,2.53-2.16s-.94-2-2.38-2a5.52,5.52,0,0,0-1.23.1Z" transform="translate(-424.49 -342.7)"/><path class="cls-3" d="M612.83,444.35H608.9V448h4.38v1.1h-5.69V439h5.46v1.09H608.9v3.2h3.93Z" transform="translate(-424.49 -342.7)"/><path class="cls-3" d="M615,439.11a14.1,14.1,0,0,1,2.51-.21,4.13,4.13,0,0,1,2.92.83,2.52,2.52,0,0,1,.8,1.92,2.66,2.66,0,0,1-1.91,2.58v0a2.52,2.52,0,0,1,1.49,2,16.2,16.2,0,0,0,.78,2.78h-1.35a13.18,13.18,0,0,1-.68-2.42c-.3-1.39-.84-1.92-2-2h-1.23v4.38H615Zm1.31,4.61h1.33c1.4,0,2.28-.77,2.28-1.92,0-1.31-.94-1.88-2.32-1.89a5.37,5.37,0,0,0-1.29.12Z" transform="translate(-424.49 -342.7)"/><path class="cls-3" d="M622.86,447.5a4.64,4.64,0,0,0,2.34.66c1.34,0,2.12-.71,2.12-1.73s-.54-1.48-1.91-2c-1.65-.58-2.67-1.44-2.67-2.86,0-1.58,1.31-2.75,3.27-2.75a4.54,4.54,0,0,1,2.24.5l-.36,1.06a4,4,0,0,0-1.92-.48c-1.38,0-1.91.83-1.91,1.52,0,.94.62,1.41,2,1.95,1.71.66,2.58,1.48,2.58,3s-1.15,2.91-3.54,2.91a5.24,5.24,0,0,1-2.58-.65Z" transform="translate(-424.49 -342.7)"/><path class="cls-3" d="M639.08,443.93c0,3.48-2.12,5.32-4.7,5.32s-4.54-2.07-4.54-5.13,2-5.31,4.69-5.31S639.08,440.93,639.08,443.93Zm-7.85.16c0,2.16,1.17,4.1,3.23,4.1s3.24-1.91,3.24-4.2c0-2-1.05-4.11-3.23-4.11S631.23,441.87,631.23,444.09Z" transform="translate(-424.49 -342.7)"/><path class="cls-3" d="M640.77,449.09V439h1.43l3.24,5.11a28.57,28.57,0,0,1,1.81,3.29l0,0c-.12-1.35-.15-2.58-.15-4.15V439h1.23v10.11H647L643.83,444a33.07,33.07,0,0,1-1.89-3.38l0,0c.07,1.27.1,2.49.1,4.17v4.32Z" transform="translate(-424.49 -342.7)"/><path class="cls-3" d="M652.28,445.91l-1,3.18h-1.35L653.31,439h1.58l3.45,10.11h-1.4l-1.08-3.18Zm3.31-1-1-2.91c-.22-.66-.37-1.26-.52-1.85h0c-.15.6-.32,1.22-.51,1.83l-1,2.93Z" transform="translate(-424.49 -342.7)"/><path class="cls-3" d="M659.82,439h1.31v9h4.32v1.1h-5.63Z" transform="translate(-424.49 -342.7)"/><path class="cls-3" d="M676.41,449.09l-.94-1a4.15,4.15,0,0,1-3,1.15,2.86,2.86,0,0,1-3.1-2.83,3.32,3.32,0,0,1,2-3v0a3.46,3.46,0,0,1-.84-2.12,2.45,2.45,0,0,1,2.56-2.49,2.11,2.11,0,0,1,2.24,2.15c0,1.06-.62,1.9-2.22,2.7v0c.85,1,1.81,2.1,2.46,2.82a7.39,7.39,0,0,0,1-2.95h1.2a7.65,7.65,0,0,1-1.45,3.73c.54.57,1.06,1.14,1.66,1.79Zm-1.59-1.74c-.6-.66-1.72-1.89-2.85-3.18a2.47,2.47,0,0,0-1.3,2.05,2,2,0,0,0,2.07,2A2.83,2.83,0,0,0,674.82,447.35Zm-3.07-6.17a2.87,2.87,0,0,0,.76,1.82c1-.59,1.68-1.13,1.68-2a1.19,1.19,0,0,0-1.17-1.31A1.31,1.31,0,0,0,671.75,441.18Z" transform="translate(-424.49 -342.7)"/><path class="cls-3" d="M689.4,448.76a6.48,6.48,0,0,1-2.67.48,4.72,4.72,0,0,1-5-5.12,5,5,0,0,1,5.28-5.31,5.44,5.44,0,0,1,2.4.45l-.32,1.07a4.74,4.74,0,0,0-2-.42c-2.37,0-3.94,1.51-3.94,4.17,0,2.47,1.42,4.06,3.88,4.06a5.11,5.11,0,0,0,2.13-.42Z" transform="translate(-424.49 -342.7)"/><path class="cls-3" d="M691,439.11a14,14,0,0,1,2.5-.21,4.14,4.14,0,0,1,2.93.83,2.51,2.51,0,0,1,.79,1.92,2.66,2.66,0,0,1-1.9,2.58v0a2.52,2.52,0,0,1,1.48,2,16.2,16.2,0,0,0,.78,2.78h-1.35a13.49,13.49,0,0,1-.67-2.42c-.3-1.39-.84-1.92-2-2h-1.23v4.38H691Zm1.3,4.61h1.34c1.39,0,2.28-.77,2.28-1.92,0-1.31-1-1.88-2.33-1.89a5.37,5.37,0,0,0-1.29.12Z" transform="translate(-424.49 -342.7)"/><path class="cls-3" d="M704.34,444.35h-3.93V448h4.38v1.1h-5.68V439h5.46v1.09h-4.16v3.2h3.93Z" transform="translate(-424.49 -342.7)"/><path class="cls-3" d="M708.12,445.91l-1,3.18h-1.35L709.16,439h1.57l3.45,10.11h-1.39l-1.08-3.18Zm3.32-1-1-2.91c-.23-.66-.38-1.26-.53-1.85h0c-.15.6-.31,1.22-.51,1.83l-1,2.93Z" transform="translate(-424.49 -342.7)"/><path class="cls-3" d="M716.43,440.09h-3.07V439h7.48v1.11h-3.09v9h-1.32Z" transform="translate(-424.49 -342.7)"/><path class="cls-3" d="M723.27,439v10.11H722V439Z" transform="translate(-424.49 -342.7)"/><path class="cls-3" d="M727.77,449.09,724.47,439h1.41l1.58,5c.43,1.36.81,2.59,1.08,3.78h0c.28-1.17.7-2.45,1.15-3.77l1.71-5h1.4l-3.62,10.11Z" transform="translate(-424.49 -342.7)"/><path class="cls-3" d="M739.16,444.35h-3.93V448h4.38v1.1h-5.69V439h5.46v1.09h-4.15v3.2h3.93Z" transform="translate(-424.49 -342.7)"/><path class="cls-3" d="M744.48,439.11a18.76,18.76,0,0,1,2.78-.21,5.8,5.8,0,0,1,4.09,1.26,4.67,4.67,0,0,1,1.43,3.63,5.33,5.33,0,0,1-1.46,3.93,6.19,6.19,0,0,1-4.47,1.46,22.32,22.32,0,0,1-2.37-.12Zm1.31,8.94a8.17,8.17,0,0,0,1.32.08c2.79,0,4.3-1.56,4.3-4.29,0-2.39-1.33-3.9-4.09-3.9a7.78,7.78,0,0,0-1.53.13Z" transform="translate(-424.49 -342.7)"/><path class="cls-3" d="M755.78,439v10.11h-1.31V439Z" transform="translate(-424.49 -342.7)"/><path class="cls-3" d="M757.88,447.5a4.61,4.61,0,0,0,2.34.66c1.33,0,2.11-.71,2.11-1.73s-.54-1.48-1.9-2c-1.65-.58-2.67-1.44-2.67-2.86,0-1.58,1.3-2.75,3.27-2.75a4.52,4.52,0,0,1,2.23.5l-.36,1.06a4,4,0,0,0-1.92-.48c-1.38,0-1.9.83-1.9,1.52,0,.94.61,1.41,2,1.95,1.71.66,2.58,1.48,2.58,3s-1.16,2.91-3.54,2.91a5.21,5.21,0,0,1-2.58-.65Z" transform="translate(-424.49 -342.7)"/><path class="cls-3" d="M772.52,448.76a6.48,6.48,0,0,1-2.67.48,4.73,4.73,0,0,1-5-5.12,5,5,0,0,1,5.28-5.31,5.4,5.4,0,0,1,2.4.45l-.31,1.07a4.77,4.77,0,0,0-2-.42c-2.37,0-3.95,1.51-3.95,4.17,0,2.47,1.43,4.06,3.89,4.06a5.18,5.18,0,0,0,2.13-.42Z" transform="translate(-424.49 -342.7)"/><path class="cls-3" d="M782.48,443.93c0,3.48-2.12,5.32-4.7,5.32s-4.54-2.07-4.54-5.13,2-5.31,4.69-5.31S782.48,440.93,782.48,443.93Zm-7.85.16c0,2.16,1.17,4.1,3.23,4.1s3.24-1.91,3.24-4.2c0-2-1.05-4.11-3.23-4.11S774.63,441.87,774.63,444.09Z" transform="translate(-424.49 -342.7)"/><path class="cls-3" d="M786.39,449.09,783.09,439h1.41l1.58,5c.43,1.36.81,2.59,1.08,3.78h0c.28-1.17.7-2.45,1.15-3.77l1.71-5h1.4l-3.62,10.11Z" transform="translate(-424.49 -342.7)"/><path class="cls-3" d="M797.78,444.35h-3.93V448h4.38v1.1h-5.69V439H798v1.09h-4.15v3.2h3.93Z" transform="translate(-424.49 -342.7)"/><path class="cls-3" d="M799.92,439.11a14.1,14.1,0,0,1,2.51-.21,4.13,4.13,0,0,1,2.92.83,2.52,2.52,0,0,1,.8,1.92,2.66,2.66,0,0,1-1.91,2.58v0a2.52,2.52,0,0,1,1.49,2,16.2,16.2,0,0,0,.78,2.78h-1.35a13.18,13.18,0,0,1-.68-2.42c-.3-1.39-.84-1.92-2-2h-1.23v4.38h-1.31Zm1.31,4.61h1.33c1.4,0,2.28-.77,2.28-1.92,0-1.31-.94-1.88-2.32-1.89a5.37,5.37,0,0,0-1.29.12Z" transform="translate(-424.49 -342.7)"/><path class="cls-3" d="M810.08,449.09V444.8l-3.2-5.82h1.49l1.42,2.79c.39.76.69,1.38,1,2.08h0c.28-.66.63-1.32,1-2.08L813.3,439h1.49l-3.39,5.8v4.31Z" transform="translate(-424.49 -342.7)"/><path class="cls-3" d="M601.53,456h-3.07v-1.11h7.48V456h-3.09v9h-1.32Z" transform="translate(-424.49 -342.7)"/><path class="cls-3" d="M609,454.91v4.23h4.89v-4.23h1.32V465h-1.32v-4.74H609V465h-1.3V454.91Z" transform="translate(-424.49 -342.7)"/><path class="cls-3" d="M618.05,455a14,14,0,0,1,2.5-.21,4.14,4.14,0,0,1,2.93.83,2.51,2.51,0,0,1,.79,1.92,2.66,2.66,0,0,1-1.9,2.58v0a2.52,2.52,0,0,1,1.48,2,16.2,16.2,0,0,0,.78,2.78h-1.35a13.49,13.49,0,0,1-.67-2.42c-.3-1.39-.84-1.92-2-2h-1.23V465h-1.3Zm1.3,4.61h1.34c1.39,0,2.28-.77,2.28-1.92,0-1.31-1-1.88-2.33-1.89a5.37,5.37,0,0,0-1.29.12Z" transform="translate(-424.49 -342.7)"/><path class="cls-3" d="M635.4,459.86c0,3.48-2.11,5.32-4.69,5.32s-4.55-2.07-4.55-5.13c0-3.21,2-5.31,4.7-5.31S635.4,456.86,635.4,459.86Zm-7.84.16c0,2.16,1.17,4.1,3.22,4.1s3.24-1.91,3.24-4.2c0-2-1-4.11-3.22-4.11S627.56,457.8,627.56,460Z" transform="translate(-424.49 -342.7)"/><path class="cls-3" d="M639,454.91v6c0,2.27,1,3.23,2.36,3.23s2.46-1,2.46-3.23v-6h1.32v5.89c0,3.11-1.64,4.38-3.83,4.38s-3.63-1.18-3.63-4.32v-5.95Z" transform="translate(-424.49 -342.7)"/><path class="cls-3" d="M655.7,464.57a9.48,9.48,0,0,1-3.11.55,4.74,4.74,0,0,1-5.19-5.1c0-3,2.09-5.22,5.48-5.22a6.25,6.25,0,0,1,2.52.47l-.32,1.06a5.22,5.22,0,0,0-2.23-.43,3.78,3.78,0,0,0-4.07,4.06c0,2.57,1.55,4.08,3.9,4.08a4.24,4.24,0,0,0,1.74-.27v-3h-2v-1.05h3.33Z" transform="translate(-424.49 -342.7)"/><path class="cls-3" d="M659.6,454.91v4.23h4.89v-4.23h1.32V465h-1.32v-4.74H659.6V465h-1.31V454.91Z" transform="translate(-424.49 -342.7)"/><path class="cls-3" d="M680.79,466.5c-1.36-.36-2.7-.76-3.87-1.17a2.09,2.09,0,0,0-.61-.15c-2.4-.09-4.46-1.86-4.46-5.11s2-5.33,4.71-5.33,4.53,2.13,4.53,5.12c0,2.59-1.2,4.26-2.88,4.84v.06c1,.26,2.1.5,3,.65Zm-1.08-6.58c0-2-1.05-4.11-3.19-4.11s-3.29,2-3.27,4.23,1.17,4.08,3.21,4.08S679.71,462.23,679.71,459.92Z" transform="translate(-424.49 -342.7)"/><path class="cls-3" d="M684.69,454.91v6c0,2.27,1,3.23,2.36,3.23,1.5,0,2.46-1,2.46-3.23v-6h1.32v5.89c0,3.11-1.64,4.38-3.83,4.38s-3.63-1.18-3.63-4.32v-5.95Z" transform="translate(-424.49 -342.7)"/><path class="cls-3" d="M694.82,461.84,693.77,465h-1.35l3.43-10.11h1.58L700.88,465h-1.4l-1.08-3.18Zm3.31-1-1-2.91c-.22-.66-.37-1.26-.52-1.85h0c-.15.6-.32,1.22-.51,1.83l-1,2.93Z" transform="translate(-424.49 -342.7)"/><path class="cls-3" d="M703,465V454.91h1.43l3.24,5.11a28.57,28.57,0,0,1,1.81,3.29l0,0c-.12-1.35-.15-2.58-.15-4.15v-4.23h1.23V465h-1.32L706,459.89a33.07,33.07,0,0,1-1.89-3.38l0,0c.07,1.27.1,2.49.1,4.17V465Z" transform="translate(-424.49 -342.7)"/><path class="cls-3" d="M715.35,456h-3.07v-1.11h7.48V456h-3.09v9h-1.32Z" transform="translate(-424.49 -342.7)"/><path class="cls-3" d="M722.79,454.91v6c0,2.27,1,3.23,2.36,3.23s2.46-1,2.46-3.23v-6h1.32v5.89c0,3.11-1.64,4.38-3.83,4.38s-3.63-1.18-3.63-4.32v-5.95Z" transform="translate(-424.49 -342.7)"/><path class="cls-3" d="M740.31,460.58c-.07-1.41-.16-3.11-.15-4.37h0c-.35,1.19-.77,2.45-1.28,3.84L737.06,465h-1l-1.64-4.82c-.48-1.42-.88-2.73-1.17-3.93h0c0,1.26-.1,3-.19,4.47l-.27,4.34h-1.25l.71-10.11h1.66l1.73,4.89c.42,1.24.76,2.35,1,3.4h0c.26-1,.62-2.13,1.07-3.4l1.8-4.89h1.66l.63,10.11h-1.27Z" transform="translate(-424.49 -342.7)"/><path class="cls-3" d="M749.54,454.91v4.23h4.89v-4.23h1.32V465h-1.32v-4.74h-4.89V465h-1.31V454.91Z" transform="translate(-424.49 -342.7)"/><path class="cls-3" d="M760.76,465v-4.29l-3.2-5.82h1.49l1.42,2.79c.39.76.69,1.38,1,2.08h0c.28-.66.63-1.32,1-2.08l1.45-2.79h1.49l-3.39,5.8V465Z" transform="translate(-424.49 -342.7)"/><path class="cls-3" d="M767.12,455a14.45,14.45,0,0,1,2.5-.2,4.17,4.17,0,0,1,2.84.84,2.74,2.74,0,0,1,.88,2.12,3,3,0,0,1-.78,2.16,4.2,4.2,0,0,1-3.09,1.11,4.78,4.78,0,0,1-1.05-.09v4h-1.3Zm1.3,4.87a4.17,4.17,0,0,0,1.08.11c1.58,0,2.54-.77,2.54-2.16s-.95-2-2.39-2a5.59,5.59,0,0,0-1.23.1Z" transform="translate(-424.49 -342.7)"/><path class="cls-3" d="M775.7,465V454.91h1.42l3.24,5.11a28.75,28.75,0,0,1,1.82,3.29l0,0c-.12-1.35-.15-2.58-.15-4.15v-4.23h1.23V465H782l-3.21-5.13a31.27,31.27,0,0,1-1.89-3.38l0,0c.08,1.27.11,2.49.11,4.17V465Z" transform="translate(-424.49 -342.7)"/><path class="cls-3" d="M794.81,459.86c0,3.48-2.12,5.32-4.7,5.32s-4.54-2.07-4.54-5.13c0-3.21,2-5.31,4.69-5.31S794.81,456.86,794.81,459.86ZM787,460c0,2.16,1.17,4.1,3.23,4.1s3.24-1.91,3.24-4.2c0-2-1-4.11-3.23-4.11S787,457.8,787,460Z" transform="translate(-424.49 -342.7)"/><path class="cls-3" d="M798.65,456h-3.08v-1.11h7.49V456H800v9h-1.32Z" transform="translate(-424.49 -342.7)"/><path class="cls-3" d="M806.09,454.91v4.23H811v-4.23h1.32V465H811v-4.74h-4.89V465h-1.31V454.91Z" transform="translate(-424.49 -342.7)"/><path class="cls-3" d="M820.4,460.28h-3.93v3.64h4.38V465h-5.69V454.91h5.46V456h-4.15v3.2h3.93Z" transform="translate(-424.49 -342.7)"/><path class="cls-3" d="M823.14,455a14.1,14.1,0,0,1,2.51-.21,4.13,4.13,0,0,1,2.92.83,2.52,2.52,0,0,1,.8,1.92,2.66,2.66,0,0,1-1.91,2.58v0a2.52,2.52,0,0,1,1.49,2,16.2,16.2,0,0,0,.78,2.78h-1.35a13.18,13.18,0,0,1-.68-2.42c-.3-1.39-.84-1.92-2-2h-1.23V465h-1.31Zm1.31,4.61h1.33c1.4,0,2.28-.77,2.28-1.92,0-1.31-.94-1.88-2.32-1.89a5.37,5.37,0,0,0-1.29.12Z" transform="translate(-424.49 -342.7)"/><path class="cls-3" d="M833.52,461.84l-1,3.18h-1.35l3.44-10.11h1.57L839.58,465h-1.39l-1.08-3.18Zm3.32-1-1-2.91c-.23-.66-.38-1.26-.53-1.85h0c-.15.6-.31,1.22-.51,1.83l-1,2.93Z" transform="translate(-424.49 -342.7)"/><path class="cls-3" d="M841.67,455a14.45,14.45,0,0,1,2.5-.2,4.17,4.17,0,0,1,2.84.84,2.74,2.74,0,0,1,.88,2.12,3,3,0,0,1-.78,2.16,4.2,4.2,0,0,1-3.09,1.11,4.78,4.78,0,0,1-1-.09v4h-1.3Zm1.3,4.87a4.17,4.17,0,0,0,1.08.11c1.58,0,2.54-.77,2.54-2.16s-1-2-2.39-2a5.59,5.59,0,0,0-1.23.1Z" transform="translate(-424.49 -342.7)"/><path class="cls-3" d="M852.36,465v-4.29l-3.19-5.82h1.48l1.43,2.79c.39.76.69,1.38,1,2.08h0c.29-.66.63-1.32,1-2.08l1.46-2.79h1.48l-3.39,5.8V465Z" transform="translate(-424.49 -342.7)"/><path class="cls-4" d="M535.15,409.81c0-20.59-10.3-39.33-27.19-53.41a3.38,3.38,0,0,0-4.11,0c-16.89,14.08-27.19,32.82-27.19,53.41,0,28.57,21.76,52.1,27.88,57.21a2.3,2.3,0,0,0,2.75,0C513.44,461.89,535.15,438.38,535.15,409.81Z" transform="translate(-424.49 -342.7)"/><g class="cls-5"><path class="cls-6" d="M507.29,395.44a2.27,2.27,0,0,0-2.75,0c-11.32,9.44-18.22,22-18.22,35.79s6.9,26.35,18.22,35.79a2.3,2.3,0,0,0,2.75,0c11.32-9.44,18.22-22,18.22-35.79S518.61,404.88,507.29,395.44Z" transform="translate(-424.49 -342.7)"/></g><g class="cls-5"><path class="cls-7" d="M566.42,388.74a2.5,2.5,0,0,0-3-1.33c-20.28,4.89-38.32,15.35-49.79,30.51s-14.33,32.29-9.75,48.13a2.21,2.21,0,0,0,2,1.4,3.28,3.28,0,0,0,1-.07c20.27-4.89,38.31-15.35,49.78-30.51S571,404.58,566.42,388.74Z" transform="translate(-424.49 -342.7)"/></g><g class="cls-5"><path class="cls-8" d="M445.31,388.74a2.5,2.5,0,0,1,3-1.33c20.28,4.89,38.32,15.35,49.79,30.51s14.33,32.29,9.75,48.13a2.22,2.22,0,0,1-2,1.4,3.23,3.23,0,0,1-1-.07c-20.27-4.89-38.31-15.35-49.78-30.51S440.72,404.58,445.31,388.74Z" transform="translate(-424.49 -342.7)"/></g><g class="cls-5"><path class="cls-9" d="M585.77,429.84c1.07.18,1.71,1,1.38,1.82-5.06,12.19-15.87,23-31.53,29.93a88.37,88.37,0,0,1-49.76,5.86c-1.07-.18-1.71-1-1.37-1.82,5.05-12.19,15.87-23,31.53-29.92A88.34,88.34,0,0,1,585.77,429.84Z" transform="translate(-424.49 -342.7)"/></g><g class="cls-5"><path class="cls-10" d="M426,429.84c-1.07.18-1.71,1-1.38,1.82,5.06,12.19,15.87,23,31.53,29.93a88.35,88.35,0,0,0,49.75,5.86c1.08-.18,1.71-1,1.38-1.82-5.05-12.19-15.87-23-31.53-29.92A88.34,88.34,0,0,0,426,429.84Z" transform="translate(-424.49 -342.7)"/></g><path class="cls-11" d="M504.9,464.7c-.14.31-.28.62-.41.93-.34.8.3,1.64,1.37,1.82a88.37,88.37,0,0,0,49.76-5.86c1.78-.78,3.48-1.63,5.14-2.51a74.64,74.64,0,0,0-15.61-2.78A72.93,72.93,0,0,0,504.9,464.7Z" transform="translate(-424.49 -342.7)"/><path class="cls-12" d="M506.83,464.7c.14.31.28.62.41.93.33.8-.3,1.64-1.38,1.82a88.35,88.35,0,0,1-49.75-5.86c-1.78-.78-3.48-1.63-5.14-2.51a74.64,74.64,0,0,1,15.61-2.78A72.93,72.93,0,0,1,506.83,464.7Z" transform="translate(-424.49 -342.7)"/><rect class="cls-13" x="32.51" width="423" height="153"/></g></g></svg>