<svg xmlns="http://www.w3.org/2000/svg" xmlns:xlink="http://www.w3.org/1999/xlink" viewBox="0 0 162.75 113"><defs><style>.cls-1{isolation:isolate;}.cls-2{fill:url(#radial-gradient);}.cls-3{mix-blend-mode:multiply;}.cls-4{fill:url(#radial-gradient-2);}.cls-5{fill:url(#radial-gradient-3);}.cls-6{fill:url(#radial-gradient-4);}.cls-7{fill:url(#radial-gradient-5);}.cls-8{fill:url(#radial-gradient-6);}.cls-9{fill:url(#radial-gradient-7);}.cls-10{fill:url(#radial-gradient-8);}</style><radialGradient id="radial-gradient" cx="682.9" cy="437.03" r="124.92" gradientUnits="userSpaceOnUse"><stop offset="0.08" stop-color="#f497b0" stop-opacity="0.2"/><stop offset="0.86" stop-color="#ee5792"/></radialGradient><radialGradient id="radial-gradient-2" cx="1113.53" cy="596.02" r="101.82" gradientTransform="translate(-431.25 -177)" xlink:href="#radial-gradient"/><radialGradient id="radial-gradient-3" cx="1113.28" cy="596.88" r="101.82" gradientTransform="translate(-431.25 -177)" xlink:href="#radial-gradient"/><radialGradient id="radial-gradient-4" cx="1113.01" cy="596.88" r="101.82" gradientTransform="matrix(-1, 0, 0, 1, 1796.7, -177)" xlink:href="#radial-gradient"/><radialGradient id="radial-gradient-5" cx="1111.38" cy="594.63" r="101.82" gradientTransform="translate(-431.25 -177)" xlink:href="#radial-gradient"/><radialGradient id="radial-gradient-6" cx="1111.1" cy="594.63" r="101.82" gradientTransform="matrix(-1, 0, 0, 1, 1796.7, -177)" xlink:href="#radial-gradient"/><radialGradient id="radial-gradient-7" cx="686.64" cy="437.22" r="61.75" gradientTransform="translate(-14.23 -5.1) rotate(-1.8) scale(1 1.06)" xlink:href="#radial-gradient"/><radialGradient id="radial-gradient-8" cx="686.37" cy="437.22" r="58.11" gradientTransform="matrix(-1, -0.03, -0.03, 1.06, 1379.69, -5.11)" xlink:href="#radial-gradient"/></defs><title>flower</title><g class="cls-1"><g id="Layer_1" data-name="Layer 1"><path class="cls-2" d="M712.15,380.81c0-20.59-10.3-39.33-27.19-53.41a3.38,3.38,0,0,0-4.11,0c-16.89,14.08-27.19,32.82-27.19,53.41,0,28.57,21.76,52.1,27.88,57.21a2.3,2.3,0,0,0,2.75,0C690.44,432.89,712.15,409.38,712.15,380.81Z" transform="translate(-601.49 -326.7)"/><g class="cls-3"><path class="cls-4" d="M684.29,366.44a2.27,2.27,0,0,0-2.75,0c-11.32,9.44-18.22,22-18.22,35.79s6.9,26.35,18.22,35.79a2.3,2.3,0,0,0,2.75,0c11.32-9.44,18.22-22,18.22-35.79S695.61,375.88,684.29,366.44Z" transform="translate(-601.49 -326.7)"/></g><g class="cls-3"><path class="cls-5" d="M743.42,359.74a2.5,2.5,0,0,0-3-1.33c-20.28,4.89-38.32,15.35-49.79,30.51s-14.33,32.29-9.75,48.13a2.21,2.21,0,0,0,2,1.4,3.28,3.28,0,0,0,1-.07c20.27-4.89,38.31-15.35,49.78-30.51S748,375.58,743.42,359.74Z" transform="translate(-601.49 -326.7)"/></g><g class="cls-3"><path class="cls-6" d="M622.31,359.74a2.5,2.5,0,0,1,3-1.33c20.28,4.89,38.32,15.35,49.79,30.51s14.33,32.29,9.75,48.13a2.22,2.22,0,0,1-2,1.4,3.23,3.23,0,0,1-1-.07c-20.27-4.89-38.31-15.35-49.78-30.51S617.72,375.58,622.31,359.74Z" transform="translate(-601.49 -326.7)"/></g><g class="cls-3"><path class="cls-7" d="M762.77,400.84c1.07.18,1.71,1,1.38,1.82-5.06,12.19-15.87,23-31.53,29.93a88.37,88.37,0,0,1-49.76,5.86c-1.07-.18-1.71-1-1.37-1.82,5-12.19,15.87-23,31.53-29.92A88.34,88.34,0,0,1,762.77,400.84Z" transform="translate(-601.49 -326.7)"/></g><g class="cls-3"><path class="cls-8" d="M603,400.84c-1.07.18-1.71,1-1.38,1.82,5.06,12.19,15.87,23,31.53,29.93a88.35,88.35,0,0,0,49.75,5.86c1.08-.18,1.71-1,1.38-1.82-5-12.19-15.87-23-31.53-29.92A88.34,88.34,0,0,0,603,400.84Z" transform="translate(-601.49 -326.7)"/></g><path class="cls-9" d="M681.9,435.7c-.14.31-.28.62-.41.93-.34.8.3,1.64,1.37,1.82a88.37,88.37,0,0,0,49.76-5.86c1.78-.78,3.48-1.63,5.14-2.51a74.64,74.64,0,0,0-15.61-2.78A72.93,72.93,0,0,0,681.9,435.7Z" transform="translate(-601.49 -326.7)"/><path class="cls-10" d="M683.83,435.7c.14.31.28.62.41.93.33.8-.3,1.64-1.38,1.82a88.35,88.35,0,0,1-49.75-5.86c-1.78-.78-3.48-1.63-5.14-2.51a74.64,74.64,0,0,1,15.61-2.78A72.93,72.93,0,0,1,683.83,435.7Z" transform="translate(-601.49 -326.7)"/></g></g></svg>